<?xml version="1.0" encoding="iso-8859-1"?>
<!-- Generator: Adobe Illustrator 19.0.0, SVG Export Plug-In . SVG Version: 6.00 Build 0)  -->
<svg version="1.1" id="Layer_1" xmlns="http://www.w3.org/2000/svg" xmlns:xlink="http://www.w3.org/1999/xlink" x="0px" y="0px"
	 viewBox="0 0 512 512" style="enable-background:new 0 0 512 512;" xml:space="preserve">
<g>
	<g>
		<path d="M491.886,54.857l-34.742-34.743C444.343,7.314,429.715,0,416.915,0c-7.314,0-14.629,1.828-18.286,7.314l-21.943,21.943
			L32.915,373.029c-3.657,3.657-5.485,7.314-5.485,10.971l-10.971,85.943L5.486,480.915c-7.314,7.314-7.314,18.286,0,25.6
			C9.143,510.172,12.8,512,18.285,512c5.485,0,9.143-1.829,12.801-5.485l10.971-10.971L128,484.572
			c3.657,0,7.314-1.829,10.971-5.485l36.571-36.571l305.372-303.544l23.771-23.772c3.657-5.486,7.314-12.8,7.314-20.115
			C512.001,82.286,504.686,67.657,491.886,54.857z M117.029,449.829l-62.171,7.314l7.314-62.171l20.114-20.115l54.857,54.857
			L117.029,449.829z M162.743,404.115l-54.857-54.857L371.2,85.943l54.857,54.857L162.743,404.115z M455.315,113.371l-3.657,3.657
			L396.8,62.171l3.657-3.657L420.572,38.4c3.657,1.828,7.314,3.657,10.971,9.143l34.742,34.743
			c3.657,3.657,7.314,9.143,9.143,10.971L455.315,113.371z"/>
	</g>
</g>
<g>
</g>
<g>
</g>
<g>
</g>
<g>
</g>
<g>
</g>
<g>
</g>
<g>
</g>
<g>
</g>
<g>
</g>
<g>
</g>
<g>
</g>
<g>
</g>
<g>
</g>
<g>
</g>
<g>
</g>
</svg>
